<svg version="1.1" id="Layer_1" xmlns="http://www.w3.org/2000/svg" xmlns:xlink="http://www.w3.org/1999/xlink" x="0px" y="0px"
	 width="500px" viewBox="0 0 512 512" enable-background="new 0 0 512 512" xml:space="preserve">

<path fill="#0088ff" opacity="1.000000" stroke="none" 
	d="
M269.048096,62.941818 
	C314.600067,72.211342 347.708557,105.529892 355.402130,150.816315 
	C358.762421,170.595901 356.561829,190.253311 349.724091,209.360886 
	C335.657593,248.668823 317.455841,286.072144 297.524323,322.635071 
	C283.183777,348.941711 267.940765,374.756622 253.056870,400.766052 
	C252.121994,402.399750 250.809174,403.817169 249.079132,406.126984 
	C246.482071,401.798828 244.363525,398.298645 242.273987,394.781250 
	C213.090576,345.655518 185.167618,295.851868 162.414108,243.350311 
	C154.480179,225.043503 146.385635,206.718811 142.632111,186.921585 
	C131.251633,126.897514 176.828400,66.814102 237.782364,62.009701 
	C247.974960,61.206318 258.335846,62.538094 269.048096,62.941818 
M175.605301,141.211273 
	C159.509750,182.089264 178.750702,227.804550 218.879944,244.029099 
	C259.672363,260.521790 305.231628,241.280563 321.924835,200.509720 
	C338.347137,160.400497 318.926758,113.982353 278.849945,97.553162 
	C238.570236,81.040787 192.850891,100.114326 175.605301,141.211273 
z"/>
<path fill="#0088ff" opacity="1.000000" stroke="none" 
	d="
M245.066254,449.994263 
	C234.869431,448.632721 225.090576,447.640503 215.488037,445.751831 
	C211.403137,444.948395 207.377548,442.718597 203.888718,440.317810 
	C200.214233,437.789246 200.260727,434.205444 203.954117,431.669556 
	C207.313553,429.362915 211.179031,427.375671 215.108215,426.384827 
	C238.964905,420.368866 262.906433,420.429260 286.773804,426.443848 
	C289.799988,427.206390 292.831299,428.412201 295.507904,430.004822 
	C301.769775,433.730682 301.734253,438.387177 295.358612,442.088806 
	C292.383026,443.816406 289.013519,445.439240 285.667084,445.853455 
	C272.329803,447.504425 258.931366,448.661133 245.066254,449.994263 
z"/>
<path fill="#A6A6A600" opacity="1.000000" stroke="none" 
	d="
M175.753113,140.856720 
	C192.850891,100.114326 238.570236,81.040787 278.849945,97.553162 
	C318.926758,113.982353 338.347137,160.400497 321.924835,200.509720 
	C305.231628,241.280563 259.672363,260.521790 218.879944,244.029099 
	C178.750702,227.804550 159.509750,182.089264 175.753113,140.856720 
z"/>
</svg>