<svg xmlns="http://www.w3.org/2000/svg" fill="none" viewBox="5.47 91.33 307.03 86.92">
<mask id="mask0_208_7" style="mask-type:luminance" maskUnits="userSpaceOnUse" x="263" y="122" width="50" height="56">
<path d="M263.304 122.279H312.498V177.823H263.304V122.279Z" fill="white"/>
</mask>
<g mask="url(#mask0_208_7)">
<path d="M287.929 122.284C287.181 122.284 286.454 122.438 285.811 122.803L265.455 134.564C264.138 135.323 263.337 136.757 263.337 138.283V161.763C263.337 163.288 264.138 164.721 265.455 165.482L270.771 168.546C273.354 169.821 274.307 169.8 275.483 169.8C279.306 169.8 281.489 167.479 281.489 163.444V140.277C281.489 139.95 281.206 139.715 280.884 139.715H278.335C278.008 139.715 277.729 139.955 277.729 140.277V163.454C277.729 165.242 275.868 167.042 272.846 165.53L267.32 162.287C267.124 162.181 266.974 161.986 266.974 161.768V138.288C266.974 138.065 267.123 137.838 267.32 137.725L287.633 126.007C287.823 125.897 288.05 125.897 288.238 126.007L308.551 137.725C308.745 137.841 308.897 138.058 308.897 138.288V161.768C308.897 161.993 308.786 162.222 308.595 162.331L288.239 174.049C288.058 174.154 287.818 174.154 287.634 174.049L282.404 170.936C282.248 170.845 282.036 170.852 281.886 170.936C280.442 171.755 280.171 171.85 278.817 172.32C278.484 172.436 277.976 172.617 278.99 173.186L285.819 177.212C286.469 177.588 287.193 177.773 287.937 177.773C288.691 177.773 289.404 177.594 290.055 177.212L310.411 165.492C311.729 164.726 312.53 163.299 312.53 161.774V138.293C312.53 136.768 311.729 135.337 310.411 134.574L290.055 122.813C289.417 122.449 288.685 122.295 287.937 122.295L287.929 122.284ZM293.375 139.062C287.578 139.062 284.127 141.531 284.127 145.635C284.127 150.082 287.552 151.311 293.116 151.861C299.771 152.513 300.291 153.491 300.291 154.801C300.291 157.075 298.48 158.044 294.197 158.044C288.817 158.044 287.634 156.701 287.239 154.018C287.191 153.73 286.97 153.499 286.677 153.499H284.034C283.954 153.501 283.878 153.518 283.804 153.549C283.732 153.58 283.666 153.624 283.61 153.68C283.553 153.737 283.51 153.802 283.479 153.875C283.447 153.948 283.431 154.024 283.429 154.105C283.429 157.532 285.293 161.585 294.191 161.585C300.632 161.585 304.348 159.061 304.348 154.623C304.348 150.236 301.347 149.05 295.098 148.223C288.791 147.381 288.184 146.979 288.184 145.498C288.184 144.277 288.694 142.644 293.37 142.644C297.546 142.644 299.09 143.545 299.723 146.363C299.779 146.627 300.012 146.843 300.285 146.843H302.928C303.09 146.843 303.247 146.744 303.361 146.627C303.471 146.503 303.549 146.363 303.534 146.195C303.125 141.342 299.891 139.059 293.377 139.059L293.375 139.062Z" fill="#83CD29"/>
</g>
<mask id="mask1_208_7" style="mask-type:luminance" maskUnits="userSpaceOnUse" x="5" y="91" width="243" height="88">
<path d="M5.46558 91.3291H247.401V178.249H5.46558V91.3291Z" fill="white"/>
</mask>
<g mask="url(#mask1_208_7)">
<path d="M168.251 91.5032C168.02 91.504 167.804 91.5612 167.603 91.6763C167.505 91.7342 167.416 91.803 167.335 91.8833C167.255 91.9645 167.187 92.0539 167.13 92.1524C167.073 92.251 167.03 92.3553 167 92.4655C166.971 92.5748 166.955 92.6874 166.955 92.8009V125.88C166.955 126.205 166.804 126.496 166.522 126.659C166.382 126.741 166.231 126.781 166.068 126.781C165.906 126.781 165.755 126.741 165.615 126.659L160.212 123.546C160.016 123.432 159.807 123.345 159.587 123.286C159.367 123.227 159.144 123.197 158.916 123.197C158.688 123.197 158.465 123.227 158.244 123.286C158.025 123.345 157.816 123.432 157.619 123.546L136.055 135.999C135.248 136.464 134.757 137.36 134.757 138.291V163.197C134.756 163.425 134.786 163.649 134.845 163.87C134.904 164.089 134.99 164.299 135.103 164.496C135.217 164.693 135.355 164.873 135.516 165.033C135.677 165.195 135.856 165.332 136.054 165.446L157.621 177.899C157.817 178.014 158.026 178.1 158.246 178.16C158.465 178.219 158.689 178.248 158.917 178.248C159.144 178.248 159.368 178.219 159.588 178.16C159.808 178.1 160.016 178.014 160.214 177.899L181.78 165.446C181.978 165.332 182.156 165.195 182.318 165.033C182.479 164.873 182.617 164.693 182.73 164.496C182.845 164.299 182.931 164.089 182.99 163.87C183.048 163.649 183.077 163.425 183.077 163.197V101.103C183.077 100.158 182.561 99.2718 181.737 98.8114L168.901 91.6299C168.699 91.5181 168.476 91.4982 168.252 91.4999L168.251 91.5032ZM29.5156 122.593C29.104 122.611 28.7181 122.682 28.3488 122.897L6.78273 135.35C6.58481 135.463 6.40593 135.601 6.24445 135.762C6.08296 135.923 5.94549 136.102 5.83204 136.299C5.71776 136.497 5.63163 136.706 5.57366 136.926C5.51487 137.146 5.48588 137.371 5.48671 137.598L5.5306 171.025C5.5306 171.49 5.77076 171.922 6.17902 172.148C6.57984 172.389 7.07671 172.389 7.47504 172.148L20.2679 164.797C21.0795 164.316 21.6078 163.477 21.6078 162.55V146.938C21.6078 146.006 22.0972 145.152 22.9055 144.69L28.3512 141.534C28.7521 141.3 29.1835 141.185 29.6473 141.187C30.111 141.184 30.5433 141.3 30.9441 141.534L36.3874 144.688C37.1948 145.151 37.6842 146.005 37.6842 146.935V162.546C37.6842 163.475 38.225 164.319 39.0233 164.794L51.8162 172.145C52.2186 172.385 52.7147 172.385 53.113 172.145C53.5089 171.917 53.7614 171.485 53.7614 171.021L53.8045 137.596C53.8062 137.367 53.7772 137.144 53.7192 136.923C53.6604 136.702 53.5751 136.494 53.4608 136.296C53.3465 136.099 53.2091 135.919 53.0476 135.758C52.8861 135.598 52.7064 135.46 52.5085 135.347L30.9424 122.898C30.5781 122.685 30.1897 122.613 29.7756 122.595H29.5172L29.5156 122.593ZM223.311 122.897C222.847 122.896 222.415 123.011 222.014 123.243L200.447 135.697C199.642 136.162 199.15 137.014 199.15 137.944V162.851C199.15 163.788 199.677 164.636 200.489 165.099L221.883 177.299C222.672 177.75 223.637 177.784 224.433 177.341L237.399 170.12C237.81 169.891 238.088 169.465 238.09 168.996C238.09 168.527 237.847 168.105 237.44 167.872L215.744 155.418C215.338 155.186 215.053 154.716 215.053 154.25V146.462C215.053 145.996 215.341 145.57 215.744 145.338L222.486 141.446C222.887 141.214 223.38 141.214 223.784 141.446L230.541 145.338C230.64 145.394 230.729 145.463 230.81 145.543C230.891 145.624 230.959 145.714 231.017 145.812C231.074 145.911 231.117 146.015 231.146 146.125C231.175 146.236 231.19 146.347 231.19 146.462V152.601C231.189 152.716 231.204 152.828 231.233 152.938C231.263 153.048 231.306 153.152 231.362 153.251C231.419 153.35 231.488 153.439 231.568 153.52C231.649 153.6 231.739 153.669 231.837 153.726C232.241 153.959 232.732 153.96 233.135 153.726L246.056 146.202C246.858 145.735 247.353 144.881 247.353 143.953V137.944C247.353 137.716 247.324 137.492 247.265 137.272C247.206 137.052 247.12 136.843 247.006 136.646C246.892 136.448 246.754 136.269 246.594 136.108C246.433 135.947 246.253 135.81 246.056 135.695L224.619 123.242C224.219 123.009 223.786 122.894 223.323 122.896L223.311 122.897ZM158.826 141.491C158.949 141.49 159.064 141.519 159.173 141.577L166.563 145.858C166.763 145.974 166.909 146.188 166.909 146.42V154.981C166.909 155.214 166.765 155.429 166.563 155.544L159.173 159.824C158.971 159.939 158.725 159.939 158.523 159.824L151.133 155.544C150.932 155.428 150.787 155.213 150.787 154.981V146.423C150.787 146.19 150.933 145.978 151.133 145.86L158.523 141.58C158.624 141.522 158.714 141.495 158.826 141.495V141.491Z" fill="white"/>
</g>
<path d="M94.3039 122.768C93.8401 122.768 93.4078 122.883 93.0062 123.115L71.4393 135.525C70.6336 135.99 70.1433 136.886 70.1433 137.816V162.723C70.1425 162.951 70.1715 163.175 70.2303 163.395C70.2891 163.616 70.3752 163.824 70.4887 164.022C70.6029 164.219 70.7404 164.398 70.9011 164.559C71.0625 164.72 71.2422 164.857 71.4393 164.971L93.0062 177.425C93.2033 177.539 93.4112 177.626 93.6314 177.685C93.8509 177.744 94.0753 177.774 94.303 177.774C94.53 177.774 94.7544 177.744 94.9738 177.685C95.1941 177.626 95.402 177.539 95.5991 177.425L117.166 164.971C117.363 164.857 117.543 164.72 117.703 164.559C117.865 164.397 118.002 164.219 118.116 164.021C118.23 163.824 118.316 163.615 118.375 163.395C118.434 163.174 118.463 162.951 118.463 162.723V137.817C118.463 136.886 117.973 135.99 117.165 135.526L95.5982 123.115C95.1974 122.883 94.7651 122.768 94.3014 122.769L94.3039 122.768ZM223.272 144.995C223.186 144.995 223.091 144.995 223.013 145.037L218.863 147.459C218.785 147.502 218.722 147.563 218.676 147.64C218.629 147.717 218.605 147.801 218.604 147.89V152.647C218.604 152.827 218.708 152.99 218.863 153.08L223.013 155.459C223.085 155.503 223.164 155.526 223.25 155.526C223.335 155.526 223.414 155.503 223.487 155.459L227.636 153.08C227.789 152.992 227.895 152.827 227.895 152.647V147.89C227.895 147.712 227.79 147.548 227.636 147.458L223.487 145.036C223.41 144.99 223.357 144.994 223.271 144.994L223.272 144.995Z" fill="#83CD29"/>
</svg>