<svg xmlns="http://www.w3.org/2000/svg" viewBox="0 0 24 24" id="symfony">
  <path fill='#fff' d="M12 0C5.372 0 0 5.372 0 12s5.372 12 12 12 12-5.372 12-12S18.628 0 12 0zm6.472 6.944c-.557.02-.94-.312-.957-.816a.858.858 0 0 1 .168-.537c.125-.241.15-.27.147-.375-.011-.317-.491-.33-.623-.323-1.802.06-2.275 2.491-2.661 4.467l-.188 1.042c1.038.152 1.774-.034 2.184-.3.578-.376-.162-.761-.068-1.189a.848.848 0 0 1 .806-.654c.44-.011.754.446.744.91-.015.766-1.032 1.82-3.064 1.776a7.789 7.789 0 0 1-.69-.048l-.383 2.116c-.344 1.605-.801 3.795-2.434 5.706-1.402 1.668-2.826 1.928-3.464 1.949-1.193.041-1.984-.594-2.012-1.444-.027-.821.699-1.269 1.176-1.286.638-.021 1.078.441 1.094.973.018.45-.218.591-.372.674-.105.082-.261.169-.255.353.003.081.089.262.355.257.503-.018.839-.268 1.073-.434 1.161-.969 1.609-2.656 2.194-5.726l.123-.746c.199-.999.421-2.112.759-3.222-.818-.617-1.309-1.38-2.412-1.68-.754-.205-1.215-.03-1.539.379-.383.483-.257 1.115.114 1.485l.612.677c.751.865 1.159 1.54 1.006 2.447-.244 1.448-1.969 2.56-4.009 1.932-1.743-.536-2.069-1.769-1.86-2.449.186-.596.66-.709 1.125-.566.498.153.692.758.551 1.223-.018.048-.043.132-.095.242-.058.128-.165.241-.21.391-.114.364.386.624.734.73.781.238 1.539-.168 1.732-.799.18-.578-.189-.984-.339-1.138l-.737-.79c-.338-.375-1.079-1.424-.719-2.6.151-.497.451-.935.861-1.254a3.101 3.101 0 0 1 2.813-.514c1.207.347 1.786 1.147 2.539 1.761.42-1.232 1.003-2.441 1.881-3.461.792-.929 1.855-1.602 3.075-1.644 1.218-.038 2.138.512 2.17 1.386.01.371-.202 1.096-.945 1.119z"></path>
</svg>
